name C:\Users\r0593348\3dpredictsim\Results\Batchsim_tmt_linear\Pog_s1_tmt_bCst_d02_k2000_ig24_pas.mot
datacolumns 128
datarows 4
range 0.55172650 0.58483009
endheader
time	pelvis_tilt	pelvis_list	pelvis_rotation	pelvis_tx	pelvis_ty	pelvis_tz	hip_flexion_l	hip_adduction_l	hip_rotation_l	hip_flexion_r	hip_adduction_r	hip_rotation_r	knee_angle_l	knee_angle_r	ankle_angle_l	ankle_angle_r	subtalar_angle_l	subtalar_angle_r	tmt_angle_l	tmt_angle_r	mtp_angle_l	mtp_angle_r	lumbar_extension	lumbar_bending	lumbar_rotation	arm_flex_l	arm_add_l	arm_rot_l	arm_flex_r	arm_add_r	arm_rot_r	elbow_flex_l	elbow_flex_r	pro_sup_l	pro_sup_r	glut_med1_l/activation	glut_med2_l/activation	glut_med3_l/activation	glut_min1_l/activation	glut_min2_l/activation	glut_min3_l/activation	semimem_l/activation	semiten_l/activation	bifemlh_l/activation	bifemsh_l/activation	sar_l/activation	add_long_l/activation	add_brev_l/activation	add_mag1_l/activation	add_mag2_l/activation	add_mag3_l/activation	tfl_l/activation	pect_l/activation	grac_l/activation	glut_max1_l/activation	glut_max2_l/activation	glut_max3_l/activation	iliacus_l/activation	psoas_l/activation	quad_fem_l/activation	gem_l/activation	peri_l/activation	rect_fem_l/activation	vas_med_l/activation	vas_int_l/activation	vas_lat_l/activation	med_gas_l/activation	lat_gas_l/activation	soleus_l/activation	tib_post_l/activation	flex_dig_l/activation	flex_hal_l/activation	tib_ant_l/activation	per_brev_l/activation	per_long_l/activation	per_tert_l/activation	ext_dig_l/activation	ext_hal_l/activation	ercspn_l/activation	intobl_l/activation	extobl_l/activation	glut_med1_r/activation	glut_med2_r/activation	glut_med3_r/activation	glut_min1_r/activation	glut_min2_r/activation	glut_min3_r/activation	semimem_r/activation	semiten_r/activation	bifemlh_r/activation	bifemsh_r/activation	sar_r/activation	add_long_r/activation	add_brev_r/activation	add_mag1_r/activation	add_mag2_r/activation	add_mag3_r/activation	tfl_r/activation	pect_r/activation	grac_r/activation	glut_max1_r/activation	glut_max2_r/activation	glut_max3_r/activation	iliacus_r/activation	psoas_r/activation	quad_fem_r/activation	gem_r/activation	peri_r/activation	rect_fem_r/activation	vas_med_r/activation	vas_int_r/activation	vas_lat_r/activation	med_gas_r/activation	lat_gas_r/activation	soleus_r/activation	tib_post_r/activation	flex_dig_r/activation	flex_hal_r/activation	tib_ant_r/activation	per_brev_r/activation	per_long_r/activation	per_tert_r/activation	ext_dig_r/activation	ext_hal_r/activation	ercspn_r/activation	intobl_r/activation	extobl_r/activation	
          0.55172650	         -2.92366206	          2.40176789	         -5.90857933	          0.68965813	          0.85576589	          0.00302730	         32.07556652	          3.30373484	         -2.82510809	        -18.36233900	         -2.04475850	          7.84530454	        -15.91143030	         -8.30866318	          5.64763653	         -0.00253891	         -2.84905657	         11.91968360	          0.01516907	          0.50951713	         -0.11400715	         23.18450198	         -2.25148498	         -1.03924891	          1.98568122	         -9.33448044	        -13.58413626	          7.26351022	          7.68956352	        -13.47412096	         17.80850869	         14.09825775	         39.20674604	         86.51662706	         86.51662706	          0.05000034	          0.05000019	          0.05000034	          0.05000022	          0.05000020	          0.05000046	          0.05888283	          0.05915289	          0.27280333	          0.05000012	          0.05000024	          0.11629378	          0.20215472	          0.17204575	          0.17350572	          0.12183521	          0.05000042	          0.05217763	          0.05919542	          0.05000064	          0.09108250	          0.12198478	          0.05608466	          0.05854994	          0.24108380	          0.05597484	          0.05318210	          0.06064311	          0.15867583	          0.16017534	          0.13436386	          0.05919536	          0.05000061	          0.05919543	          0.05000002	          0.05000041	          0.05000210	          0.55125204	          0.37622055	          0.21424268	          0.32018021	          0.59488645	          0.27662789	          0.06326387	          0.09164863	          0.09495147	          0.25479509	          0.09704325	          0.05499880	          0.32464827	          0.20254473	          0.09823200	          0.05000067	          0.05000010	          0.05000008	          0.07845209	          0.10160710	          0.13107337	          0.05000075	          0.05000040	          0.05000076	          0.05000055	          0.31339993	          0.05526047	          0.05000035	          0.05000138	          0.05000097	          0.05000071	          0.37073548	          0.61133487	          0.05000011	          0.05000027	          0.05000006	          0.21840530	          0.13002365	          0.05005880	          0.05540886	          0.29996513	          0.40700058	          0.27331955	          0.25487333	          0.27801088	          0.35311268	          0.05000000	          0.06933446	          0.18353546	          0.05000004	          0.05000000	          0.05000003	          0.05000000	          0.05000001	          0.05000001	
          0.56276103	         -2.91237817	          2.50998234	         -6.15797257	          0.70662810	          0.85464737	          0.00279548	         31.40085843	          3.74154863	         -2.63111379	        -18.05912566	         -2.35555017	          7.65747715	        -15.75755296	        -10.58647757	          5.11396997	         -1.01033633	         -3.36181535	         13.01122090	          0.02132132	          0.47355221	         -0.10535962	         24.13267109	         -2.02902128	         -1.29004797	          2.07613886	        -10.47176018	        -13.58170060	          7.05892005	          7.39691281	        -13.50253240	         17.96505966	         14.04065206	         40.44391187	         86.51662706	         86.51662706	          0.05000002	          0.05000007	          0.07259308	          0.05000005	          0.05000008	          0.05000011	          0.05000001	          0.05000002	          0.23396477	          0.05000002	          0.05000037	          0.09822877	          0.17075203	          0.33467988	          0.23842861	          0.10935789	          0.05000008	          0.05000075	          0.05000019	          0.05919542	          0.10008341	          0.13948437	          0.05000003	          0.05000015	          0.56274420	          0.11723238	          0.09181279	          0.07008200	          0.24107323	          0.24102479	          0.20557271	          0.05000000	          0.05000000	          0.05000000	          0.05000008	          0.07002098	          0.05000025	          0.64398698	          0.31777841	          0.21441106	          0.53763706	          0.62854379	          0.27594592	          0.05343644	          0.07741190	          0.08020168	          0.21521515	          0.08196853	          0.05762314	          0.27421735	          0.17108138	          0.08297262	          0.05000093	          0.05000009	          0.05000011	          0.06626532	          0.08582349	          0.20734131	          0.15833620	          0.07008255	          0.05000438	          0.05000089	          0.26471640	          0.11274244	          0.05000269	          0.05000078	          0.05000053	          0.05000051	          0.31314531	          0.55215666	          0.05000073	          0.05919629	          0.05919550	          0.18447816	          0.13768265	          0.13768280	          0.13768267	          0.25336844	          0.34377696	          0.23086200	          0.21528124	          0.23482466	          0.29826009	          0.05000000	          0.05856404	          0.15502505	          0.05000002	          0.05000000	          0.05000003	          0.06180053	          0.07008198	          0.05000001	
          0.57379556	         -2.89645074	          2.61827225	         -6.37954837	          0.72385803	          0.85346504	          0.00257802	         30.57112208	          4.10883114	         -2.35105514	        -17.66266210	         -2.65015785	          7.45729224	        -16.09400522	        -13.01747164	          4.58976374	         -2.18742817	         -3.90727296	         14.03197466	         -0.01567870	          0.43033022	         -0.15942643	         24.84955702	         -1.78738251	         -1.54407871	          2.15537667	        -11.60635065	        -13.58421690	          6.91165767	          7.01657693	        -13.53313332	         18.04464961	         13.99818260	         41.66013141	         86.51662706	         86.51662706	          0.30678675	          0.28845757	          0.34541123	          0.05000052	          0.05000019	          0.05000012	          0.08947187	          0.09594592	          0.20489231	          0.05000011	          0.05000030	          0.08297046	          0.20275848	          0.28269067	          0.20845734	          0.15895555	          0.05000012	          0.07008187	          0.14521731	          0.05000005	          0.08453647	          0.11781741	          0.05166721	          0.05000013	          0.47532732	          0.09902150	          0.22474338	          0.05919544	          0.20362487	          0.20358400	          0.17363901	          0.05919545	          0.05919545	          0.05919544	          0.05000003	          0.05914409	          0.05919537	          0.54394984	          0.41126021	          0.20184522	          0.45412062	          0.63789789	          0.23308041	          0.05931559	          0.08297076	          0.06774312	          0.31277301	          0.06923552	          0.05000008	          0.23162055	          0.14450556	          0.07008364	          0.05000074	          0.05000011	          0.05000011	          0.05597166	          0.07249171	          0.18015279	          0.26700528	          0.05919614	          0.05526727	          0.05000091	          0.22359588	          0.09522971	          0.05000241	          0.05000439	          0.05000266	          0.05000235	          0.26450122	          0.50014779	          0.05770842	          0.05000097	          0.05000007	          0.15582126	          0.11629503	          0.11629514	          0.11629503	          0.21401009	          0.29037453	          0.19499981	          0.18183938	          0.19834695	          0.25192829	          0.05000003	          0.05000018	          0.18946954	          0.05000003	          0.10802977	          0.05000008	          0.07759244	          0.05919542	          0.05000003	
          0.58483009	         -2.87792328	          2.72363228	         -6.56670963	          0.74113435	          0.85224591	          0.00234594	         29.61943295	          4.43498452	         -2.05445208	        -17.14596902	         -2.92144747	          7.25413457	        -16.46670963	        -15.62751928	          4.31685224	         -3.44014847	         -4.47650178	         14.96403133	         -0.00927774	          0.35483419	         -0.17059695	         25.13244303	         -1.54639968	         -1.79623610	          2.22396537	        -12.68320778	        -13.58941691	          6.84264323	          6.58591765	        -13.56838755	         18.06589303	         13.93063538	         42.82783121	         86.51662706	         86.51662706	          0.39879016	          0.43075313	          0.48119891	          0.26013662	          0.22894386	          0.37466655	          0.08256292	          0.12626953	          0.17306427	          0.07008209	          0.05000026	          0.07008182	          0.17126192	          0.23877751	          0.23326185	          0.17896812	          0.05000007	          0.05919551	          0.12265982	          0.26748759	          0.20333916	          0.17068787	          0.05000003	          0.05000004	          0.40148982	          0.08363954	          0.21174513	          0.05000001	          0.20304842	          0.25122934	          0.19398168	          0.05000001	          0.05000002	          0.05000000	          0.05000000	          0.05000005	          0.05000003	          0.70012861	          0.34737493	          0.17049053	          0.68548710	          0.68721926	          0.40528824	          0.08499313	          0.07008207	          0.05721988	          0.26418677	          0.05848046	          0.05000000	          0.20418775	          0.12205804	          0.05919684	          0.05000071	          0.05000005	          0.05000005	          0.05000003	          0.06123090	          0.19048290	          0.22552885	          0.05000069	          0.05000029	          0.05000078	          0.20796314	          0.08043694	          0.05000010	          0.05000024	          0.05000015	          0.05000008	          0.22341352	          0.43919315	          0.05000001	          0.05000008	          0.05000004	          0.13161594	          0.09822978	          0.09822985	          0.09822975	          0.18076569	          0.24526765	          0.16470847	          0.15359240	          0.16753570	          0.21279369	          0.16924526	          0.10885956	          0.16003730	          0.33091627	          0.23778513	          0.13659359	          0.10698972	          0.05000000	          0.05000001	
